<svg width="176" height="37" viewBox="0 0 176 37" fill="none" xmlns="http://www.w3.org/2000/svg">
<rect x="1" y="1" width="131.097" height="34.2514" stroke="white" stroke-width="2"/>
<path fill-rule="evenodd" clip-rule="evenodd" d="M2 34.2514H98.7383V2H2V34.2514Z" fill="#FFCC00"/>
<path fill-rule="evenodd" clip-rule="evenodd" d="M98.7383 34.2514H131.097V2H98.7383V34.2514Z" fill="black"/>
<path fill-rule="evenodd" clip-rule="evenodd" d="M109.537 23.0228C110.102 22.5471 110.199 21.958 110.199 21.4296V19.2086H107.126V22.223C107.126 22.6535 106.779 23.0026 106.353 23.0026C105.926 23.0026 105.608 22.6535 105.608 22.223V13.6843C105.608 13.2535 105.926 12.9043 106.353 12.9043C106.779 12.9043 107.126 13.2535 107.126 13.6843V16.7165H110.196V13.5712C110.196 11.8324 109.07 10.4025 106.327 10.3984C103.511 10.3984 102.446 11.8364 102.446 13.5742V22.489C102.446 24.212 103.801 25.5163 105.535 25.5163H106.489L109.537 23.0228Z" fill="white"/>
<path fill-rule="evenodd" clip-rule="evenodd" d="M121.778 23.3949V13.6161H119.636V10.7344H127.389V13.6161H125.237V25.5162H124.318L121.778 23.3949Z" fill="white"/>
<path fill-rule="evenodd" clip-rule="evenodd" d="M123.007 25.5169L115.559 19.1338L107.839 25.5169H123.007Z" fill="#FFCC00"/>
<path fill-rule="evenodd" clip-rule="evenodd" d="M114.669 17.4143L115.493 13.2131L116.311 17.4143H114.669ZM117.613 10.7344H113.355L110.873 21.849L115.493 18.127L120.31 22.1567L117.613 10.7344Z" fill="white"/>
<path fill-rule="evenodd" clip-rule="evenodd" d="M128.892 11.4736C129.038 11.4687 129.072 11.4094 129.072 11.3329C129.072 11.2592 129.038 11.2211 128.915 11.2211H128.729V11.4736H128.892ZM128.729 11.6279V12.0546H128.574V11.0671H128.895C129.076 11.0671 129.264 11.1157 129.264 11.3397C129.264 11.454 129.194 11.5434 129.062 11.5704V11.5744C129.199 11.6008 129.216 11.6617 129.231 11.7686C129.243 11.862 129.255 11.9658 129.289 12.0546H129.091C129.081 11.9987 129.065 11.936 129.058 11.8777C129.047 11.7932 129.047 11.7148 129.002 11.6687C128.964 11.6279 128.913 11.6322 128.859 11.6279H128.729ZM129.6 11.5723C129.6 11.1916 129.291 10.8819 128.908 10.8819C128.522 10.8819 128.21 11.1916 128.21 11.5723C128.21 11.956 128.522 12.267 128.908 12.267C129.291 12.267 129.6 11.956 129.6 11.5723ZM128.063 11.5723C128.063 11.1095 128.439 10.7344 128.908 10.7344C129.374 10.7344 129.748 11.1095 129.748 11.5723C129.748 12.039 129.374 12.4141 128.908 12.4141C128.439 12.4141 128.063 12.039 128.063 11.5723Z" fill="white"/>
<path fill-rule="evenodd" clip-rule="evenodd" d="M92.8272 9.458C92.9721 9.45278 93.006 9.39379 93.006 9.31697C93.006 9.24385 92.9721 9.20544 92.8484 9.20544H92.6628V9.458H92.8272ZM92.6628 9.61224V10.0387H92.508V9.05151H92.8287C93.0106 9.05151 93.199 9.10036 93.199 9.32435C93.199 9.43803 93.1293 9.52775 92.9977 9.55479V9.55909C93.1336 9.58521 93.1497 9.64635 93.1651 9.75327C93.1783 9.84637 93.1894 9.94992 93.2237 10.0387H93.026C93.0146 9.98341 92.9998 9.92073 92.9921 9.86235C92.9816 9.77755 92.9816 9.6992 92.936 9.65311C92.8984 9.61224 92.8466 9.61655 92.7929 9.61224H92.6628ZM93.5357 9.55663C93.5357 9.17594 93.2255 8.86592 92.8426 8.86592C92.4565 8.86592 92.1445 9.17594 92.1445 9.55663C92.1445 9.9407 92.4565 10.2513 92.8426 10.2513C93.2255 10.2513 93.5357 9.9407 93.5357 9.55663ZM91.9968 9.55663C91.9968 9.09421 92.3733 8.71875 92.8426 8.71875C93.3082 8.71875 93.6822 9.09421 93.6822 9.55663C93.6822 10.0234 93.3082 10.3985 92.8426 10.3985C92.3733 10.3985 91.9968 10.0234 91.9968 9.55663Z" fill="black"/>
<path fill-rule="evenodd" clip-rule="evenodd" d="M21.295 24.0138C22.0189 23.9878 22.321 23.6692 22.321 23.2008C22.321 22.7317 22.0189 22.4134 21.295 22.3874H20.3496V24.0138H21.295ZM18.5164 27.5325V21.1494H21.5605C23.1829 21.1494 24.2465 21.6538 24.2465 23.2008C24.2465 24.7475 23.1829 25.2525 21.5605 25.2525H20.3496V27.5325H18.5164Z" fill="black"/>
<path fill-rule="evenodd" clip-rule="evenodd" d="M26.943 26.5606C27.6816 26.5606 27.8382 25.8085 27.8382 25.1816C27.8382 24.5534 27.6816 23.8019 26.943 23.8019C26.2038 23.8019 26.0466 24.5534 26.0466 25.1816C26.0466 25.8085 26.2038 26.5606 26.943 26.5606ZM29.6394 25.1816C29.6394 26.8166 28.3933 27.5324 26.943 27.5324C25.4928 27.5324 24.2463 26.8166 24.2463 25.1816C24.2463 23.5453 25.4928 22.8291 26.943 22.8291C28.3933 22.8291 29.6394 23.5453 29.6394 25.1816Z" fill="black"/>
<path fill-rule="evenodd" clip-rule="evenodd" d="M31.3815 27.5324L29.9766 23.165H31.739L32.4824 26.2617H32.5012L33.3095 23.165H35.2369L36.036 26.2442H36.0541L36.8618 23.165H38.4032L36.9538 27.5324H35.0255L34.1897 24.4879H34.1723L33.2726 27.5324H31.3815Z" fill="black"/>
<path fill-rule="evenodd" clip-rule="evenodd" d="M41.8824 24.615C41.8824 24.3761 41.8126 24.1376 41.6821 23.9521C41.5496 23.7663 41.3578 23.6517 41.1033 23.6695C40.5265 23.6962 40.3859 24.1109 40.3415 24.615H41.8824ZM40.3072 25.5169C40.2978 26.0908 40.4472 26.5876 41.0681 26.5876C41.5323 26.5876 41.8217 26.3656 41.8824 25.9498H43.4239C43.3714 26.525 43.0116 26.9404 42.592 27.1878C42.2073 27.4352 41.7163 27.5324 41.2005 27.5324C39.44 27.5324 38.7402 26.7721 38.7402 25.0304C38.7402 23.6244 39.782 22.8291 41.1033 22.8291C42.8895 22.8291 43.4592 23.8632 43.4592 25.5169H40.3072Z" fill="black"/>
<path fill-rule="evenodd" clip-rule="evenodd" d="M46.2747 23.8223H46.2943C46.4964 23.0672 47.0675 22.8117 47.8411 22.83V24.2938C47.7124 24.2853 47.5916 24.2853 47.4732 24.2853C46.561 24.2938 46.2476 24.8316 46.2747 25.7043V27.5324H44.525V24.1402C44.525 23.7308 44.5164 23.458 44.4705 22.9663H46.2476L46.2747 23.8223Z" fill="black"/>
<path fill-rule="evenodd" clip-rule="evenodd" d="M54.9161 22.8411C54.9241 22.5911 54.8436 22.4036 54.6818 22.2694C54.5277 22.1345 54.2937 22.0649 53.9872 22.0649C53.5736 22.0649 53.213 22.332 53.213 22.6537C53.213 23.1275 53.7895 23.2794 54.2672 23.4039C55.3562 23.6813 56.9421 23.7885 56.9421 25.5312C56.9421 26.8888 55.5912 27.5325 54.0862 27.5325C52.5725 27.5325 51.2394 27.0946 51.2119 25.3433H53.0143C53.0056 25.9507 53.4564 26.2811 54.104 26.2811C54.5193 26.2811 55.051 26.067 55.051 25.6377C55.051 24.7629 53.7169 24.9507 52.3026 24.3333C51.645 24.0473 51.3207 23.4575 51.3207 22.7602C51.3929 21.2331 52.7437 20.8135 54.104 20.8135C55.4468 20.8135 56.8252 21.286 56.7168 22.8411H54.9161Z" fill="black"/>
<path fill-rule="evenodd" clip-rule="evenodd" d="M62.335 22.8291L59.8279 29.2122H58.219L58.872 27.5843L56.9419 22.8291H58.8073L59.717 26.039H59.7355L60.7271 22.8291H62.335Z" fill="black"/>
<path fill-rule="evenodd" clip-rule="evenodd" d="M65.0086 24.333C65.0086 24.1818 64.9805 24.0493 64.8992 23.9604C64.8077 23.8632 64.6627 23.8019 64.4258 23.8019C64.171 23.8019 64.0164 23.9432 64.0164 24.2005C64.0164 24.526 64.7165 24.5086 65.7989 24.8354C66.3451 25.0043 66.7168 25.3308 66.7168 26.0572C66.7168 27.2316 65.58 27.5324 64.5352 27.5324C63.417 27.5324 62.3255 27.311 62.335 25.9584H63.9714C63.9433 26.0908 63.9897 26.241 64.0896 26.356C64.1896 26.4707 64.3353 26.5606 64.4986 26.5606C64.8355 26.5606 65.0805 26.4364 65.0805 26.1537C65.0805 25.3667 62.3801 25.8345 62.3801 24.2266C62.3801 23.1299 63.5803 22.8291 64.4898 22.8291C65.5722 22.8291 66.5718 23.1025 66.6436 24.333H65.0086Z" fill="black"/>
<path fill-rule="evenodd" clip-rule="evenodd" d="M68.3041 23.1661V22.4744L70.0741 21.8213V23.1661H71.0989V24.2574H70.0741V26.0675C70.0741 26.1854 70.0002 26.7761 70.4091 26.7761C70.6417 26.7761 70.8843 26.7761 71.0891 26.7507V27.7769C70.6896 27.8501 70.3994 27.8684 70.1387 27.8684C68.9366 27.8684 68.2107 27.7054 68.3041 26.3037V24.2574H67.3911V23.1661H68.3041Z" fill="black"/>
<path fill-rule="evenodd" clip-rule="evenodd" d="M74.5797 24.615C74.5797 24.3761 74.5092 24.1376 74.3768 23.9521C74.2467 23.7663 74.0536 23.6517 73.8005 23.6695C73.2215 23.6962 73.0823 24.1109 73.0386 24.615H74.5797ZM73.0033 25.5169C72.9952 26.0908 73.1429 26.5876 73.7643 26.5876C74.2287 26.5876 74.5174 26.3656 74.5797 25.9498H76.1192C76.0676 26.525 75.7082 26.9404 75.2881 27.1878C74.9029 27.4352 74.4124 27.5324 73.8964 27.5324C72.1361 27.5324 71.4358 26.7721 71.4358 25.0304C71.4358 23.6244 72.4785 22.8291 73.8005 22.8291C75.5853 22.8291 76.1547 23.8632 76.1547 25.5169H73.0033Z" fill="black"/>
<path fill-rule="evenodd" clip-rule="evenodd" d="M78.9103 23.7213H78.9273C79.2479 23.0932 79.8495 22.8572 80.5345 22.8572C81.0919 22.8572 81.7224 23.1477 81.9133 23.7023C82.225 23.1566 82.8542 22.8471 83.5392 22.8291C84.5254 22.8291 85.2556 23.466 85.2556 24.4765V27.5324H83.5198V24.8494C83.5025 24.4033 83.3922 23.9213 82.8542 23.9213C81.9964 23.9213 82.1049 24.8579 82.1049 24.9125V27.5324H80.3712V24.8494C80.3531 24.4033 80.2429 23.9213 79.7039 23.9213C78.8467 23.9213 78.9556 24.8579 78.9556 24.9125V27.5324H77.2208V24.1396C77.2208 23.7301 77.212 23.4572 77.166 22.9654H78.8821L78.9103 23.7213Z" fill="black"/>
<path fill-rule="evenodd" clip-rule="evenodd" d="M88.9399 24.333C88.9399 24.1818 88.9121 24.0493 88.8305 23.9604C88.7404 23.8632 88.5944 23.8019 88.3573 23.8019C88.103 23.8019 87.9482 23.9432 87.9482 24.2005C87.9482 24.526 88.6493 24.5086 89.7307 24.8354C90.276 25.0043 90.6485 25.3308 90.6485 26.0572C90.6485 27.2316 89.5119 27.5324 88.4671 27.5324C87.3498 27.5324 86.2592 27.311 86.2666 25.9584H87.9045C87.8764 26.0908 87.9215 26.241 88.0221 26.356C88.1213 26.4707 88.2673 26.5606 88.4312 26.5606C88.7672 26.5606 89.0117 26.4364 89.0117 26.1537C89.0117 25.3667 86.3127 25.8345 86.3127 24.2266C86.3127 23.1299 87.5127 22.8291 88.422 22.8291C89.5034 22.8291 90.5022 23.1025 90.5754 24.333H88.9399Z" fill="black"/>
<path fill-rule="evenodd" clip-rule="evenodd" d="M18.4397 8.71875H27.28V10.4835L22.3495 15.9891H27.28V17.7894H18.1792V15.9891L23.0494 10.4835H18.4397V8.71875Z" fill="black"/>
<path fill-rule="evenodd" clip-rule="evenodd" d="M83.3803 8.71875L87.8534 14.136V8.71875H90.6486V17.7894H87.8534L83.339 12.3157V17.7894H80.5366V8.71875H83.3803Z" fill="black"/>
<path fill-rule="evenodd" clip-rule="evenodd" d="M68.0652 8.71875H71.1387V15.9911H74.4695V17.7894H68.0652V8.71875Z" fill="black"/>
<path fill-rule="evenodd" clip-rule="evenodd" d="M29.6394 8.71875H37.1294V10.5184H32.8441V12.3573H36.8586V14.1576H32.8441V15.9788H37.3919V17.7894H29.6394V8.71875Z" fill="black"/>
<path fill-rule="evenodd" clip-rule="evenodd" d="M44.0444 13.323C43.6646 13.6956 42.8326 13.686 42.8326 13.686L42.3151 13.6956V10.552H42.8326C42.8326 10.552 43.5189 10.5317 43.8334 10.7336C44.3123 11.0474 44.4351 11.5008 44.4351 12.0232C44.4351 12.5452 44.408 12.9623 44.0444 13.323ZM45.0419 8.97115C44.2589 8.71709 42.4866 8.71875 42.4866 8.71875H41.1361V8.71975L39.0774 8.71875V17.7894H42.3151V15.6447C42.6574 15.6371 42.9838 15.6344 43.1654 15.6344C43.6491 15.6344 44.5227 15.5278 45.1217 15.3136C46.6896 14.7524 47.5041 13.4698 47.5041 12.1447C47.5041 10.7784 46.7837 9.52543 45.0419 8.97115Z" fill="black"/>
<path fill-rule="evenodd" clip-rule="evenodd" d="M58.2903 8.71875H65.7749V10.5184H61.4927V12.3573H65.5056V14.1576H61.4927V15.9788H66.0428V17.7894H58.2903V8.71875Z" fill="black"/>
<path fill-rule="evenodd" clip-rule="evenodd" d="M53.8209 13.323C53.44 13.6956 52.6077 13.686 52.6077 13.686L52.088 13.6956V10.552H52.6077C52.6077 10.552 53.2921 10.5317 53.6085 10.7336C54.0872 11.0474 54.2131 11.5008 54.2131 12.0232C54.2131 12.5452 54.1843 12.9623 53.8209 13.323ZM54.817 8.97115C54.0327 8.71709 52.2626 8.71875 52.2626 8.71875H50.9097V8.71975L48.8523 8.71875V17.7894H52.088V15.6447C52.4304 15.6371 52.7583 15.6344 52.9403 15.6344C53.4254 15.6344 54.2983 15.5278 54.8955 15.3136C56.465 14.7524 57.279 13.4698 57.279 12.1447C57.279 10.7784 56.5607 9.52543 54.817 8.97115Z" fill="black"/>
<path fill-rule="evenodd" clip-rule="evenodd" d="M75.4807 17.7894H78.5143V8.71875H75.4807V17.7894Z" fill="black"/>
<path fill-rule="evenodd" clip-rule="evenodd" d="M160.178 14.7032L154.03 21.6681V27.2702H168.19V34.3361H146.27V14.7032H160.178ZM176.001 2.03516V21.6681H162.093L168.19 14.7536V9.10098H154.03V2.03516H176.001Z" fill="white"/>
</svg>
